<svg width="624" height="377" viewBox="0 0 624 377" fill="none" xmlns="http://www.w3.org/2000/svg">
<g clip-path="url(#clip0)">
<path d="M531.266 252.464C533.339 252.562 535.407 252.178 537.305 251.34C539.204 250.502 540.883 249.235 542.209 247.637C543.534 246.039 544.471 244.155 544.946 242.133C545.42 240.112 545.418 238.007 544.941 235.986C544.464 233.965 543.524 232.082 542.196 230.486C540.868 228.891 539.188 227.626 537.288 226.791C535.388 225.956 533.32 225.574 531.247 225.675C529.174 225.776 527.154 226.358 525.344 227.375L527.711 233.866L522.841 229.187C520.229 231.576 518.672 234.905 518.512 238.442C518.451 239.683 518.565 240.927 518.852 242.135C519.518 244.974 521.09 247.518 523.33 249.381C525.57 251.245 528.356 252.327 531.266 252.464Z" fill="#D16438"/>
<path d="M570.423 324.115C567.583 318.851 570.806 312.399 574.51 307.705C578.215 303.011 582.731 298.126 582.635 292.145C582.497 283.549 573.38 278.472 566.095 273.915C560.691 270.533 555.706 266.522 551.245 261.965C549.456 260.138 547.727 258.184 546.681 255.85C545.175 252.489 545.217 248.666 545.312 244.984C545.628 232.717 546.234 220.462 547.128 208.22" stroke="#3F3D56" stroke-miterlimit="10"/>
<path d="M531.266 250.603C533.339 250.702 535.407 250.317 537.305 249.479C539.204 248.641 540.883 247.374 542.209 245.776C543.534 244.178 544.471 242.294 544.946 240.273C545.42 238.251 545.418 236.146 544.941 234.125C544.464 232.104 543.524 230.221 542.196 228.626C540.868 227.03 539.188 225.765 537.288 224.93C535.388 224.095 533.32 223.713 531.247 223.814C529.174 223.916 527.154 224.497 525.344 225.514L527.711 232.005L522.841 227.326C520.229 229.715 518.672 233.044 518.512 236.582C518.451 237.822 518.565 239.066 518.852 240.274C519.518 243.113 521.09 245.657 523.33 247.52C525.57 249.384 528.356 250.467 531.266 250.603V250.603Z" stroke="#3F3D56" stroke-miterlimit="10"/>
<path d="M533.281 210.031C533.385 207.785 534.053 205.602 535.221 203.682C536.39 201.762 538.023 200.168 539.969 199.046L542.969 204.984L542.878 197.796C545.603 196.992 548.512 197.076 551.185 198.036C553.859 198.995 556.159 200.78 557.753 203.132C559.347 205.485 560.153 208.283 560.054 211.124C559.955 213.965 558.956 216.701 557.203 218.937C555.449 221.173 553.03 222.793 550.296 223.563C547.563 224.334 544.655 224.215 541.993 223.224C539.331 222.233 537.052 220.421 535.487 218.05C533.921 215.678 533.148 212.87 533.281 210.031Z" fill="#D16438"/>
<path d="M533.281 207.55C533.385 205.304 534.053 203.121 535.221 201.201C536.39 199.281 538.023 197.687 539.969 196.565L542.969 202.503L542.878 195.315C545.603 194.511 548.512 194.595 551.185 195.555C553.859 196.514 556.159 198.299 557.753 200.651C559.347 203.004 560.153 205.803 560.054 208.643C559.955 211.484 558.956 214.22 557.203 216.456C555.449 218.692 553.03 220.312 550.296 221.082C547.563 221.853 544.655 221.734 541.993 220.743C539.331 219.752 537.052 217.94 535.487 215.569C533.921 213.197 533.148 210.389 533.281 207.55V207.55Z" stroke="#3F3D56" stroke-miterlimit="10"/>
<path d="M563.889 274.741C567.175 274.895 570.403 273.833 572.958 271.757C575.512 269.682 577.214 266.738 577.74 263.488C578.265 260.237 577.577 256.907 575.806 254.132C574.035 251.356 571.306 249.33 568.139 248.439L568.209 253.963L565.176 247.954C565.163 247.953 565.151 247.952 565.139 247.952C563.382 247.87 561.625 248.135 559.97 248.732C558.315 249.329 556.793 250.247 555.492 251.433C554.191 252.619 553.137 254.049 552.388 255.643C551.64 257.236 551.212 258.962 551.13 260.721C551.048 262.48 551.313 264.238 551.91 265.894C552.506 267.551 553.423 269.074 554.608 270.375C555.793 271.677 557.222 272.733 558.815 273.482C560.407 274.231 562.131 274.659 563.889 274.741Z" fill="#D16438"/>
<path d="M563.786 272.26C567.072 272.414 570.301 271.352 572.855 269.276C575.409 267.201 577.111 264.257 577.637 261.007C578.162 257.756 577.474 254.426 575.703 251.651C573.933 248.875 571.203 246.849 568.036 245.958L568.106 251.482L565.073 245.473C565.061 245.472 565.048 245.471 565.036 245.471C563.279 245.389 561.522 245.654 559.867 246.251C558.212 246.849 556.69 247.766 555.389 248.952C554.088 250.138 553.034 251.568 552.285 253.162C551.537 254.755 551.109 256.481 551.027 258.24C550.945 259.999 551.21 261.757 551.807 263.413C552.404 265.07 553.32 266.593 554.505 267.895C555.69 269.196 557.119 270.252 558.712 271.001C560.304 271.75 562.028 272.178 563.786 272.26V272.26Z" stroke="#3F3D56" stroke-miterlimit="10"/>
<path d="M557.172 300.15C558.578 302.884 560.88 305.052 563.693 306.288C566.506 307.525 569.658 307.756 572.621 306.943C575.584 306.13 578.178 304.322 579.967 301.822C581.756 299.322 582.632 296.283 582.447 293.213C582.263 290.144 581.03 287.232 578.955 284.964C576.879 282.697 574.088 281.213 571.049 280.761C568.01 280.308 564.908 280.916 562.263 282.481C559.619 284.046 557.592 286.473 556.524 289.356L564.891 296.17L555.686 294.035C555.685 296.163 556.194 298.26 557.172 300.15Z" fill="#D16438"/>
<path d="M557.172 298.29C558.578 301.024 560.88 303.191 563.693 304.428C566.506 305.664 569.658 305.895 572.621 305.082C575.584 304.269 578.178 302.461 579.967 299.961C581.756 297.461 582.632 294.422 582.447 291.353C582.263 288.283 581.03 285.371 578.955 283.103C576.879 280.836 574.088 279.352 571.049 278.9C568.01 278.447 564.908 279.055 562.263 280.62C559.619 282.185 557.592 284.612 556.524 287.495L564.891 294.309L555.686 292.174C555.685 294.302 556.194 296.4 557.172 298.29V298.29Z" stroke="#3F3D56" stroke-miterlimit="10"/>
<path d="M454.969 94.7256C456.584 101.09 455.354 107.934 452.621 113.903C449.887 119.872 445.735 125.075 441.34 129.951C439.129 132.404 436.737 135.012 436.268 138.282C435.642 142.642 438.58 146.588 440.553 150.526C442.278 153.974 443.325 157.722 443.636 161.566C443.901 164.867 443.488 168.505 441.178 170.876C438.951 173.162 435.53 173.715 432.354 174.01C423.605 174.823 414.791 174.61 406.092 173.375C408.53 170.13 407.614 168.117 407.385 164.064C406.935 156.113 401.153 148.914 400.031 141.03C399.138 134.762 403.284 129.008 407.203 124.037L425.172 101.246C428.149 97.4692 431.115 93.5792 433.253 89.2494C434.781 86.1552 435.067 80.3461 438.911 79.3144C446.154 77.3705 453.56 89.1746 454.969 94.7256Z" fill="#47465A"/>
<path d="M366.789 113.511C366.789 113.511 354.393 150.108 348.195 152.589C341.997 155.07 385.382 199.73 385.382 199.73L416.991 184.223L418.231 154.45L405.835 153.829C405.835 153.829 403.976 141.424 410.174 135.221C416.372 129.018 366.789 113.511 366.789 113.511Z" fill="#A0616A"/>
<path d="M381.044 175.539C381.044 175.539 354.393 157.551 353.153 142.665C353.153 142.665 333.32 155.69 327.122 155.07C320.924 154.45 304.19 158.172 304.19 160.653C304.19 163.134 319.685 233.225 319.685 233.225C319.685 233.225 308.529 262.999 314.107 272.303C319.685 281.607 322.784 325.027 322.784 325.027H451.699C451.699 325.027 434.345 294.633 443.642 272.923C452.939 251.214 456.658 160.032 456.658 160.032C456.658 160.032 449.84 155.07 443.022 156.311C436.205 157.551 428.148 152.589 423.189 151.969C418.231 151.348 406.994 153.888 406.994 153.888L381.044 175.539Z" fill="#6C63FF"/>
<path d="M624 324.362V351.654C624 356.457 622.109 361.067 618.736 364.484C615.364 367.901 610.782 369.85 605.983 369.91L32.1742 376.999C30.7875 377.016 29.4113 376.758 28.1252 376.239C26.8391 375.719 25.6689 374.95 24.6822 373.975C23.6956 372.999 22.9122 371.838 22.3776 370.557C21.843 369.276 21.5677 367.902 21.5677 366.515V336.345C21.5677 333.644 22.6183 331.049 24.497 329.11C26.3757 327.171 28.9349 326.04 31.6325 325.956L607.318 308.174C609.484 308.107 611.642 308.477 613.663 309.26C615.683 310.043 617.526 311.225 619.082 312.735C620.638 314.244 621.875 316.052 622.72 318.049C623.565 320.046 624 322.193 624 324.362Z" fill="#47465A"/>
<path opacity="0.1" d="M624 344.255V351.654C624 356.457 622.109 361.067 618.736 364.484C615.364 367.901 610.782 369.85 605.983 369.909L32.1742 376.999C30.7875 377.016 29.4113 376.758 28.1252 376.239C26.8391 375.719 25.6689 374.95 24.6822 373.974C23.6956 372.999 22.9122 371.838 22.3776 370.557C21.843 369.276 21.5677 367.902 21.5677 366.514V365.543L624 344.255Z" fill="black"/>
<path d="M511.199 325.027L438.597 315.599L309.498 320.313L356.253 334.951L511.199 325.027Z" fill="#F2F2F2"/>
<path d="M318.446 320.685V328.128L247.79 344.255L240.886 342.661L239.733 342.394L188.91 315.102L318.446 320.685Z" fill="#9493B6"/>
<path opacity="0.1" d="M318.446 320.685V328.128L247.79 344.255L240.886 342.661L239.733 334.951L318.446 320.685Z" fill="black"/>
<path d="M237.253 332.47C238.493 331.85 264.524 326.888 264.524 326.888L217.42 322.546L237.253 332.47Z" fill="#47465A"/>
<path d="M400.257 145.146C422.507 145.146 440.543 127.095 440.543 104.827C440.543 82.5603 422.507 64.5093 400.257 64.5093C378.008 64.5093 359.971 82.5603 359.971 104.827C359.971 127.095 378.008 145.146 400.257 145.146Z" fill="#A0616A"/>
<path d="M283.118 287.19C283.118 287.19 247.17 302.697 238.493 298.355C229.816 294.013 203.785 282.848 195.728 305.798C189.23 324.306 227.161 325.468 242.088 325.225C243.893 325.195 245.67 324.774 247.297 323.99C248.923 323.206 250.36 322.079 251.508 320.685L303.261 303.007C303.261 303.007 291.795 283.468 283.118 287.19Z" fill="#A0616A"/>
<path d="M384.762 258.657L389.101 262.378L348.815 319.444C348.815 319.444 342.617 320.064 344.476 316.963L384.762 258.657Z" fill="#47465A"/>
<path d="M387.242 262.378L391.58 256.796L389.721 255.555L385.383 260.517L387.242 262.378Z" fill="#47465A"/>
<path d="M313.797 156.621C313.797 156.621 292.724 160.342 293.344 176.47C293.964 192.597 288.696 210.895 283.737 219.579C278.779 228.263 282.498 235.086 283.737 246.871C284.977 258.657 277.539 271.062 281.258 277.265C284.977 283.468 240.972 287.81 240.972 294.013C240.972 300.215 268.862 312.001 263.904 320.064C260.337 325.866 285.481 316.096 299.871 310.157C303.618 308.645 306.945 306.25 309.57 303.177C312.195 300.103 314.04 296.441 314.949 292.501C315.385 290.524 315.501 288.74 315.036 287.5C313.177 282.537 335.18 276.024 335.799 263.619C336.419 251.213 332.7 238.808 329.601 226.402C326.503 213.996 313.797 156.621 313.797 156.621Z" fill="#6C63FF"/>
<path d="M6.6792 221.54L188.425 223.261C189.681 223.273 190.908 223.643 191.962 224.328C193.016 225.013 193.853 225.985 194.374 227.129L243.354 334.53C243.822 335.555 244.02 336.683 243.93 337.806C243.839 338.929 243.464 340.011 242.839 340.948C242.214 341.885 241.36 342.647 240.358 343.161C239.356 343.676 238.239 343.925 237.114 343.886L54.7304 337.572C53.516 337.53 52.3366 337.154 51.322 336.484C50.3074 335.815 49.4969 334.879 48.9794 333.778L0.637187 230.969C0.160961 229.957 -0.0506368 228.839 0.0222142 227.722C0.0950652 226.606 0.449981 225.525 1.05372 224.583C1.65746 223.641 2.49027 222.867 3.47415 222.335C4.45804 221.803 5.56081 221.529 6.6792 221.54Z" fill="#7A799C"/>
<path d="M435.585 287.19C435.585 287.19 399.637 302.697 390.96 298.355C382.283 294.013 356.252 282.848 348.195 305.798C341.697 324.306 379.628 325.468 394.556 325.225C396.361 325.195 398.138 324.774 399.764 323.99C401.39 323.206 402.827 322.079 403.976 320.685L456.658 315.102C456.658 315.102 444.262 283.468 435.585 287.19Z" fill="#A0616A"/>
<path opacity="0.1" d="M456.968 169.647C456.968 169.647 465.955 157.551 470.293 168.716C474.632 179.881 474.012 223.301 474.012 223.301C474.012 223.301 481.449 245.011 478.97 259.277C476.491 273.544 481.449 275.405 481.449 275.405C481.449 275.405 482.689 281.607 478.97 284.709C475.251 287.81 472.772 301.456 474.012 303.317C475.251 305.178 472.152 316.963 469.673 316.963C467.194 316.963 461.926 316.033 461.926 316.033C461.926 316.033 449.22 292.772 422.569 290.912C422.569 290.912 426.908 284.709 424.429 272.303C421.95 259.898 456.968 169.647 456.968 169.647Z" fill="black"/>
<path d="M455.418 160.653C455.418 160.653 465.645 156.621 469.983 167.786C474.322 178.951 478.35 223.301 478.35 223.301C478.35 223.301 485.788 245.011 483.309 259.277C480.829 273.544 485.788 275.405 485.788 275.405C485.788 275.405 487.027 281.607 483.309 284.709C479.59 287.81 477.111 301.456 478.35 303.317C479.59 305.178 476.491 316.963 474.012 316.963C471.533 316.963 448.601 320.685 448.601 320.685C448.601 320.685 453.559 292.772 426.908 290.912C426.908 290.912 431.246 284.709 428.767 272.303C426.288 259.898 455.418 160.653 455.418 160.653Z" fill="#6C63FF"/>
<path d="M413.753 47.9305C407.572 44.0617 400.578 41.6826 393.322 40.981C386.066 40.2794 378.747 41.2743 371.941 43.8874C364.644 46.7597 358.199 51.4362 352.171 56.4545C347.336 60.4801 342.621 64.8717 339.65 70.4202C335.146 78.8327 335.159 88.8467 335.281 98.3901C335.387 106.699 335.495 115.033 336.626 123.265C338.178 134.556 341.655 145.734 340.856 157.103C340.058 168.472 333.382 180.602 322.222 182.869C332.604 183.655 343.039 183.355 353.359 181.972C359.863 181.099 366.69 179.609 371.445 175.083C374.918 171.778 376.881 167.221 378.589 162.739C380.305 158.235 381.877 153.555 381.817 148.734C381.691 138.705 374.732 130.292 370.191 121.35C368.916 118.841 367.797 116.142 367.841 113.327C367.885 110.512 369.354 107.557 371.968 106.518C375.194 105.235 378.929 107.148 382.283 106.252C387.671 104.811 389.069 97.3226 394.016 94.7454C397.677 92.8384 402.349 94.2683 405.426 97.0193C406.803 98.2496 407.982 99.7367 409.578 100.663C411.742 101.92 414.371 101.981 416.873 102.008C421.544 102.06 437.487 94.7326 440.853 91.4915C444.137 108.396 468.556 93.684 454.542 68.744C449.663 60.0602 443.191 51.9949 434.581 46.9935C425.972 41.9921 414.987 40.4409 405.949 44.6165" fill="#47465A"/>
<path d="M372.057 124.366C375.138 124.366 377.635 119.923 377.635 114.442C377.635 108.96 375.138 104.517 372.057 104.517C368.976 104.517 366.479 108.96 366.479 114.442C366.479 119.923 368.976 124.366 372.057 124.366Z" fill="#A0616A"/>
<path d="M426.908 152.911C426.908 152.911 461.306 157.861 463.165 160.343C465.025 162.824 461.306 177.71 461.306 177.71L436.515 182.052L417.438 177.935L426.908 152.911Z" fill="#6C63FF"/>
<path opacity="0.1" d="M321.47 177.199C316.29 176.306 311.237 180.998 308.555 187.185C305.873 193.371 305.144 200.785 304.88 207.987C304.618 215.145 304.773 222.455 306.402 229.26C309.746 243.234 318.725 253.114 323.921 265.963C327.912 276.158 329.526 287.131 328.64 298.044" fill="black"/>
<path d="M325.189 177.199C320.009 176.306 314.956 180.998 312.274 187.185C309.591 193.371 308.863 200.785 308.599 207.987C308.337 215.145 308.492 222.455 310.121 229.26C313.465 243.234 322.444 253.114 327.64 265.963C331.631 276.158 333.245 287.131 332.359 298.044" fill="#6C63FF"/>
<path d="M524.401 315.796L584.358 339.798L621.831 333.047L618.563 306.203L618.083 302.295L555.129 282.793L550.632 287.294L524.401 315.796Z" fill="#6C63FF"/>
<path opacity="0.1" d="M558.876 287.572V313.546L621.831 333.048L618.563 306.203L558.876 287.572Z" fill="black"/>
<path d="M500.923 321.405L505.166 322.978L555.769 341.733L559.702 343.19C559.825 343.237 559.959 343.253 560.09 343.238C560.221 343.222 560.347 343.176 560.456 343.102L565.09 339.992L613.296 307.625L617.85 304.569C617.982 304.48 618.085 304.357 618.149 304.212C618.213 304.067 618.235 303.907 618.212 303.75C618.189 303.593 618.121 303.446 618.018 303.326C617.915 303.206 617.78 303.118 617.628 303.072L610.366 300.846L559.32 285.196L554.863 283.827C554.744 283.79 554.618 283.781 554.494 283.799C554.37 283.818 554.252 283.864 554.149 283.934L550.638 286.302L505.158 316.954L500.75 319.926C500.622 320.012 500.521 320.131 500.456 320.271C500.392 320.411 500.367 320.565 500.385 320.718C500.403 320.871 500.463 321.016 500.558 321.137C500.652 321.259 500.779 321.351 500.923 321.405Z" fill="#7A799C"/>
<path d="M605.331 307.36L560.162 338.104C559.944 338.253 559.694 338.347 559.432 338.38C559.17 338.413 558.904 338.382 558.656 338.292L510.704 320.771C510.412 320.664 510.156 320.477 509.964 320.233C509.772 319.988 509.651 319.695 509.616 319.386C509.581 319.077 509.632 318.764 509.765 318.482C509.897 318.201 510.104 317.961 510.364 317.791L554.084 289.238C554.289 289.104 554.521 289.017 554.763 288.983C555.005 288.949 555.252 288.969 555.485 289.042L604.888 304.371C605.189 304.466 605.457 304.643 605.661 304.882C605.866 305.122 605.999 305.415 606.046 305.727C606.092 306.039 606.049 306.357 605.923 306.646C605.797 306.935 605.592 307.182 605.331 307.36Z" fill="#F2F2F2"/>
<path d="M610.366 300.846V307.625H613.296L617.85 304.569C617.982 304.481 618.085 304.357 618.149 304.212C618.213 304.067 618.235 303.907 618.212 303.75C618.189 303.593 618.121 303.447 618.018 303.326C617.915 303.206 617.78 303.118 617.628 303.072L610.366 300.846Z" fill="#6C63FF"/>
<path d="M555.769 339.61V341.733L559.702 343.19C559.825 343.237 559.959 343.253 560.09 343.238C560.221 343.222 560.347 343.176 560.456 343.101L565.09 339.992V339.61H555.769Z" fill="#6C63FF"/>
<path d="M500.923 321.405L505.166 322.978V316.954H505.158L500.75 319.926C500.622 320.012 500.521 320.131 500.456 320.271C500.392 320.411 500.367 320.566 500.385 320.719C500.403 320.871 500.463 321.016 500.558 321.138C500.652 321.259 500.779 321.351 500.923 321.405Z" fill="#6C63FF"/>
<path d="M550.638 286.302H559.32V285.196L554.863 283.827C554.744 283.79 554.618 283.781 554.494 283.799C554.37 283.818 554.252 283.864 554.149 283.934L550.638 286.302Z" fill="#6C63FF"/>
<path d="M531.652 301.456C531.994 301.456 532.272 301.179 532.272 300.836C532.272 300.494 531.994 300.216 531.652 300.216C531.31 300.216 531.032 300.494 531.032 300.836C531.032 301.179 531.31 301.456 531.652 301.456Z" fill="#F2F2F2"/>
</g>
<defs>
<clipPath id="clip0">
<rect width="624" height="377" fill="white"/>
</clipPath>
</defs>
</svg>
